name ./resultDataOpenSim/trcMotMarkerGrf/sub06/grf-13-03.mot
datacolumns 19
datarows 30
range 1.64000000 1.75600000
endheader

                time	     ground_force_vx	     ground_force_vy	     ground_force_vz	     ground_force_px	     ground_force_py	     ground_force_pz	   l_ground_force_vx	   l_ground_force_vy	   l_ground_force_vz	   l_ground_force_px	   l_ground_force_py	   l_ground_force_pz	     ground_torque_x	     ground_torque_y	     ground_torque_z	   l_ground_torque_x	   l_ground_torque_y	   l_ground_torque_z	
          1.64000000	        182.35469258	        630.83614703	        -49.20269911	          0.92744655	          0.00000000	          0.06960118	          0.00000000	          0.00000000	          0.00000000	          0.00000000	          0.00000000	          0.00000000	          0.00000000	          3.55484131	          0.00000000	          0.00000000	          0.00000000	          0.00000000	
          1.64400000	        188.06445989	        613.76798263	        -48.85647037	          0.92699223	          0.00000000	          0.06961419	          0.00000000	          0.00000000	          0.00000000	          0.00000000	          0.00000000	          0.00000000	          0.00000000	          3.46512680	          0.00000000	          0.00000000	          0.00000000	          0.00000000	
          1.64800000	        193.32868069	        594.31350332	        -47.42723667	          0.92637723	          0.00000000	          0.06959160	          0.00000000	          0.00000000	          0.00000000	          0.00000000	          0.00000000	          0.00000000	          0.00000000	          3.34099177	          0.00000000	          0.00000000	          0.00000000	          0.00000000	
          1.65200000	        197.69847766	        572.09252504	        -44.83246202	          0.92559331	          0.00000000	          0.06953101	          0.00000000	          0.00000000	          0.00000000	          0.00000000	          0.00000000	          0.00000000	          0.00000000	          3.18388998	          0.00000000	          0.00000000	          0.00000000	          0.00000000	
          1.65600000	        200.68612794	        546.62714015	        -41.08766473	          0.92466178	          0.00000000	          0.06943046	          0.00000000	          0.00000000	          0.00000000	          0.00000000	          0.00000000	          0.00000000	          0.00000000	          2.99528377	          0.00000000	          0.00000000	          0.00000000	          0.00000000	
          1.66000000	        201.81852650	        517.43453605	        -36.31895450	          0.92361037	          0.00000000	          0.06928655	          0.00000000	          0.00000000	          0.00000000	          0.00000000	          0.00000000	          0.00000000	          0.00000000	          2.77578301	          0.00000000	          0.00000000	          0.00000000	          0.00000000	
          1.66400000	        200.66590101	        484.13908218	        -30.77549609	          0.92246386	          0.00000000	          0.06910860	          0.00000000	          0.00000000	          0.00000000	          0.00000000	          0.00000000	          0.00000000	          0.00000000	          2.52700244	          0.00000000	          0.00000000	          0.00000000	          0.00000000	
          1.66800000	        196.81708798	        446.60273804	        -24.81251453	          0.92126068	          0.00000000	          0.06892619	          0.00000000	          0.00000000	          0.00000000	          0.00000000	          0.00000000	          0.00000000	          0.00000000	          2.25566040	          0.00000000	          0.00000000	          0.00000000	          0.00000000	
          1.67200000	        189.82043852	        405.08032637	        -18.84611611	          0.92007696	          0.00000000	          0.06878463	          0.00000000	          0.00000000	          0.00000000	          0.00000000	          0.00000000	          0.00000000	          0.00000000	          1.97760853	          0.00000000	          0.00000000	          0.00000000	          0.00000000	
          1.67600000	        179.16822198	        360.36787132	        -13.26993582	          0.91904425	          0.00000000	          0.06873952	          0.00000000	          0.00000000	          0.00000000	          0.00000000	          0.00000000	          0.00000000	          0.00000000	          1.71842544	          0.00000000	          0.00000000	          0.00000000	          0.00000000	
          1.68000000	        164.43349677	        313.86745161	         -8.37022074	          0.91837122	          0.00000000	          0.06883179	          0.00000000	          0.00000000	          0.00000000	          0.00000000	          0.00000000	          0.00000000	          0.00000000	          1.50814257	          0.00000000	          0.00000000	          0.00000000	          0.00000000	
          1.68400000	        145.56284132	        267.47699110	         -4.32348521	          0.91842342	          0.00000000	          0.06906120	          0.00000000	          0.00000000	          0.00000000	          0.00000000	          0.00000000	          0.00000000	          0.00000000	          1.37101651	          0.00000000	          0.00000000	          0.00000000	          0.00000000	
          1.68800000	        123.16251685	        223.25487799	         -1.24361738	          0.91971741	          0.00000000	          0.06936784	          0.00000000	          0.00000000	          0.00000000	          0.00000000	          0.00000000	          0.00000000	          0.00000000	          1.31496358	          0.00000000	          0.00000000	          0.00000000	          0.00000000	
          1.69200000	         98.55597356	        182.93352094	          0.81980254	          0.92274903	          0.00000000	          0.06963437	          0.00000000	          0.00000000	          0.00000000	          0.00000000	          0.00000000	          0.00000000	          0.00000000	          1.32623742	          0.00000000	          0.00000000	          0.00000000	          0.00000000	
          1.69600000	         73.51049857	        147.51313397	          1.91284327	          0.92775660	          0.00000000	          0.06969617	          0.00000000	          0.00000000	          0.00000000	          0.00000000	          0.00000000	          0.00000000	          0.00000000	          1.37244803	          0.00000000	          0.00000000	          0.00000000	          0.00000000	
          1.70000000	         49.78692587	        117.14174155	          2.18217923	          0.93474761	          0.00000000	          0.06935211	          0.00000000	          0.00000000	          0.00000000	          0.00000000	          0.00000000	          0.00000000	          0.00000000	          1.41289960	          0.00000000	          0.00000000	          0.00000000	          0.00000000	
          1.70400000	         28.76284296	         91.27240509	          1.85244134	          0.94360974	          0.00000000	          0.06840214	          0.00000000	          0.00000000	          0.00000000	          0.00000000	          0.00000000	          0.00000000	          0.00000000	          1.41172857	          0.00000000	          0.00000000	          0.00000000	          0.00000000	
          1.70800000	         11.21240040	         68.97357004	          1.17441807	          0.95391333	          0.00000000	          0.06680403	          0.00000000	          0.00000000	          0.00000000	          0.00000000	          0.00000000	          0.00000000	          0.00000000	          1.34822379	          0.00000000	          0.00000000	          0.00000000	          0.00000000	
          1.71200000	         -2.77946603	         49.27582750	          0.36269785	          0.96540236	          0.00000000	          0.06460775	          0.00000000	          0.00000000	          0.00000000	          0.00000000	          0.00000000	          0.00000000	          0.00000000	          1.22050935	          0.00000000	          0.00000000	          0.00000000	          0.00000000	
          1.71600000	        -13.72168877	         31.43120466	         -0.43742796	          0.97821829	          0.00000000	          0.06175850	          0.00000000	          0.00000000	          0.00000000	          0.00000000	          0.00000000	          0.00000000	          0.00000000	          1.04234281	          0.00000000	          0.00000000	          0.00000000	          0.00000000	
          1.72000000	        -22.42295392	         15.03009143	         -1.15573446	          0.99168355	          0.00000000	          0.05785521	          0.00000000	          0.00000000	          0.00000000	          0.00000000	          0.00000000	          0.00000000	          0.00000000	          0.83628126	          0.00000000	          0.00000000	          0.00000000	          0.00000000	
          1.72400000	          0.00000000	          0.00000000	          0.00000000	          0.00000000	          0.00000000	          0.00000000	          0.00000000	          0.00000000	          0.00000000	          0.00000000	          0.00000000	          0.00000000	          0.00000000	          0.00000000	          0.00000000	          0.00000000	          0.00000000	          0.00000000	
          1.72800000	          0.00000000	          0.00000000	          0.00000000	          0.00000000	          0.00000000	          0.00000000	          0.00000000	          0.00000000	          0.00000000	          0.00000000	          0.00000000	          0.00000000	          0.00000000	          0.00000000	          0.00000000	          0.00000000	          0.00000000	          0.00000000	
          1.73200000	          0.00000000	          0.00000000	          0.00000000	          0.00000000	          0.00000000	          0.00000000	          0.00000000	          0.00000000	          0.00000000	          0.00000000	          0.00000000	          0.00000000	          0.00000000	          0.00000000	          0.00000000	          0.00000000	          0.00000000	          0.00000000	
          1.73600000	          0.00000000	          0.00000000	          0.00000000	          0.00000000	          0.00000000	          0.00000000	          0.00000000	          0.00000000	          0.00000000	          0.00000000	          0.00000000	          0.00000000	          0.00000000	          0.00000000	          0.00000000	          0.00000000	          0.00000000	          0.00000000	
          1.74000000	          0.00000000	          0.00000000	          0.00000000	          0.00000000	          0.00000000	          0.00000000	          0.00000000	          0.00000000	          0.00000000	          0.00000000	          0.00000000	          0.00000000	          0.00000000	          0.00000000	          0.00000000	          0.00000000	          0.00000000	          0.00000000	
          1.74400000	          0.00000000	          0.00000000	          0.00000000	          0.00000000	          0.00000000	          0.00000000	          0.00000000	          0.00000000	          0.00000000	          0.00000000	          0.00000000	          0.00000000	          0.00000000	          0.00000000	          0.00000000	          0.00000000	          0.00000000	          0.00000000	
          1.74800000	          0.00000000	          0.00000000	          0.00000000	          0.00000000	          0.00000000	          0.00000000	          0.00000000	          0.00000000	          0.00000000	          0.00000000	          0.00000000	          0.00000000	          0.00000000	          0.00000000	          0.00000000	          0.00000000	          0.00000000	          0.00000000	
          1.75200000	          0.00000000	          0.00000000	          0.00000000	          0.00000000	          0.00000000	          0.00000000	          0.00000000	          0.00000000	          0.00000000	          0.00000000	          0.00000000	          0.00000000	          0.00000000	          0.00000000	          0.00000000	          0.00000000	          0.00000000	          0.00000000	
          1.75600000	          0.00000000	          0.00000000	          0.00000000	          0.00000000	          0.00000000	          0.00000000	          0.00000000	          0.00000000	          0.00000000	          0.00000000	          0.00000000	          0.00000000	          0.00000000	          0.00000000	          0.00000000	          0.00000000	          0.00000000	          0.00000000	
